<mxfile host="app.diagrams.net" modified="2023-11-22T13:53:53.057Z" agent="Mozilla/5.0 (Windows NT 10.0; Win64; x64) AppleWebKit/537.36 (KHTML, like Gecko) Chrome/119.0.0.0 Safari/537.36 Edg/119.0.0.0" etag="_P1SxnZm75mpjb7Qlm_c" version="22.1.3" type="github">
  <diagram name="Page-1" id="MLi_b8CRW8CIYBqJFgWO">
    <mxGraphModel dx="1346" dy="762" grid="1" gridSize="10" guides="1" tooltips="1" connect="1" arrows="1" fold="1" page="1" pageScale="1" pageWidth="850" pageHeight="1100" math="0" shadow="0">
      <root>
        <mxCell id="0" />
        <mxCell id="1" parent="0" />
        <mxCell id="Yna0Ybnk2GWHzLcwSec_-2" value="" style="rounded=0;whiteSpace=wrap;html=1;" vertex="1" parent="1">
          <mxGeometry x="70" y="170" width="670" height="560" as="geometry" />
        </mxCell>
        <mxCell id="Yna0Ybnk2GWHzLcwSec_-23" value="" style="whiteSpace=wrap;html=1;aspect=fixed;" vertex="1" parent="1">
          <mxGeometry x="415" y="560" width="30" height="30" as="geometry" />
        </mxCell>
        <mxCell id="Yna0Ybnk2GWHzLcwSec_-24" value="" style="whiteSpace=wrap;html=1;aspect=fixed;" vertex="1" parent="1">
          <mxGeometry x="318" y="560" width="30" height="30" as="geometry" />
        </mxCell>
        <mxCell id="Yna0Ybnk2GWHzLcwSec_-25" value="" style="whiteSpace=wrap;html=1;aspect=fixed;" vertex="1" parent="1">
          <mxGeometry x="222" y="560" width="30" height="30" as="geometry" />
        </mxCell>
        <mxCell id="Yna0Ybnk2GWHzLcwSec_-26" value="" style="whiteSpace=wrap;html=1;aspect=fixed;" vertex="1" parent="1">
          <mxGeometry x="125" y="560" width="30" height="30" as="geometry" />
        </mxCell>
        <mxCell id="Yna0Ybnk2GWHzLcwSec_-27" value="" style="whiteSpace=wrap;html=1;aspect=fixed;" vertex="1" parent="1">
          <mxGeometry x="125" y="475" width="30" height="30" as="geometry" />
        </mxCell>
        <mxCell id="Yna0Ybnk2GWHzLcwSec_-28" value="" style="whiteSpace=wrap;html=1;aspect=fixed;" vertex="1" parent="1">
          <mxGeometry x="222" y="475" width="30" height="30" as="geometry" />
        </mxCell>
        <mxCell id="Yna0Ybnk2GWHzLcwSec_-29" value="" style="whiteSpace=wrap;html=1;aspect=fixed;" vertex="1" parent="1">
          <mxGeometry x="318" y="475" width="30" height="30" as="geometry" />
        </mxCell>
        <mxCell id="Yna0Ybnk2GWHzLcwSec_-30" value="" style="whiteSpace=wrap;html=1;aspect=fixed;" vertex="1" parent="1">
          <mxGeometry x="415" y="475" width="30" height="30" as="geometry" />
        </mxCell>
        <mxCell id="Yna0Ybnk2GWHzLcwSec_-31" value="" style="whiteSpace=wrap;html=1;aspect=fixed;" vertex="1" parent="1">
          <mxGeometry x="415" y="385" width="30" height="30" as="geometry" />
        </mxCell>
        <mxCell id="Yna0Ybnk2GWHzLcwSec_-32" value="" style="whiteSpace=wrap;html=1;aspect=fixed;" vertex="1" parent="1">
          <mxGeometry x="318" y="385" width="30" height="30" as="geometry" />
        </mxCell>
        <mxCell id="Yna0Ybnk2GWHzLcwSec_-33" value="" style="whiteSpace=wrap;html=1;aspect=fixed;" vertex="1" parent="1">
          <mxGeometry x="222" y="385" width="30" height="30" as="geometry" />
        </mxCell>
        <mxCell id="Yna0Ybnk2GWHzLcwSec_-34" value="" style="whiteSpace=wrap;html=1;aspect=fixed;" vertex="1" parent="1">
          <mxGeometry x="125" y="385" width="30" height="30" as="geometry" />
        </mxCell>
        <mxCell id="Yna0Ybnk2GWHzLcwSec_-35" value="" style="whiteSpace=wrap;html=1;aspect=fixed;" vertex="1" parent="1">
          <mxGeometry x="125" y="295" width="30" height="30" as="geometry" />
        </mxCell>
        <mxCell id="Yna0Ybnk2GWHzLcwSec_-36" value="" style="whiteSpace=wrap;html=1;aspect=fixed;" vertex="1" parent="1">
          <mxGeometry x="222" y="295" width="30" height="30" as="geometry" />
        </mxCell>
        <mxCell id="Yna0Ybnk2GWHzLcwSec_-37" value="" style="whiteSpace=wrap;html=1;aspect=fixed;" vertex="1" parent="1">
          <mxGeometry x="318" y="295" width="30" height="30" as="geometry" />
        </mxCell>
        <mxCell id="Yna0Ybnk2GWHzLcwSec_-38" value="" style="whiteSpace=wrap;html=1;aspect=fixed;" vertex="1" parent="1">
          <mxGeometry x="415" y="295" width="30" height="30" as="geometry" />
        </mxCell>
      </root>
    </mxGraphModel>
  </diagram>
</mxfile>
